<?xml version="1.0" encoding="UTF-8"?>
<svg width="19px" height="20px" viewBox="0 0 19 20" version="1.1" xmlns="http://www.w3.org/2000/svg" xmlns:xlink="http://www.w3.org/1999/xlink">
    <title>logo (1)</title>
    <g id="Page-1" stroke="none" stroke-width="1" fill="none" fill-rule="evenodd">
        <g id="logo-(1)" transform="translate(0.136676, 0.124349)" fill="#343536" fill-rule="nonzero">
            <circle id="Oval" cx="9.83353633" cy="9.83948072" r="2.71276596"></circle>
            <path d="M14.4271533,12.7692679 C14.0654512,13.4203318 13.5590682,13.9990552 12.9441746,14.4330977 C12.9080044,14.4692679 12.8718341,14.4692679 12.8356639,14.5054381 C12.7994937,14.5416083 12.7271533,14.5416083 12.6909831,14.5777786 C12.003749,15.0479913 11.2441746,15.337353 10.4122597,15.4458637 C10.1590682,15.4820339 9.90587673,15.4820339 9.68885543,15.4820339 C9.43566393,15.4820339 9.21864263,15.4458637 8.96545123,15.4458637 C8.09736613,15.337353 7.33779163,15.0118211 6.68672783,14.5777786 C6.65055753,14.5416083 6.57821713,14.5054381 6.54204693,14.5054381 C6.50587673,14.4692679 6.46970653,14.4692679 6.43353633,14.4330977 C4.73353633,13.2033105 3.90162143,11.1054381 4.26332353,8.82671472 C4.58885543,6.58416152 6.50587673,4.66714032 8.85694053,4.26926792 C9.00162143,4.23309772 9.14630223,4.23309772 9.29098313,4.19692752 C9.32715333,4.19692752 9.36332353,4.19692752 9.39949373,4.19692752 C9.50800443,4.19692752 9.61651503,4.19692752 9.72502563,4.19692752 C9.83353633,4.19692752 9.94204693,4.19692752 10.0505575,4.19692752 C10.0867278,4.19692752 10.122898,4.19692752 10.1590682,4.19692752 C10.303749,4.19692752 10.4484299,4.23309772 10.5931107,4.26926792 C12.2207703,4.55862962 13.6675788,5.60756582 14.4994937,6.98203392 C14.6803448,7.27139562 15.0782171,7.41607642 15.3675788,7.23522542 L17.8994935,5.78841692 C18.2250255,5.60756582 18.2973665,5.20969352 18.1526855,4.92033182 C17.5739615,3.94373602 16.8143875,3.03948072 15.9463025,2.27990624 C15.8739615,2.20756581 15.8377916,2.13522539 15.7654512,2.06288496 C14.1016214,0.760757299 12.003749,-0.0349873808 9.76119583,0.00118282922 C7.48247243,0.00118282922 5.38460013,0.760757299 3.75694053,2.06288496 C3.68460013,2.13522539 3.61225973,2.20756581 3.57608953,2.27990624 C1.76757883,3.79905522 0.537791629,5.96926792 0.139919229,8.28416152 C-0.655825371,13.0224594 2.02077033,17.5075658 6.18034483,19.1713956 C7.33779163,19.6416083 8.56757883,19.8586296 9.79736613,19.8224594 C11.0271533,19.8224594 12.2569405,19.6054381 13.4143873,19.1713956 C15.4760895,18.3394807 17.1399195,16.856502 18.2611955,14.9756509 C18.4420465,14.6862892 18.3335365,14.2884169 18.0441745,14.1075658 L15.5122597,12.6245871 C14.9697065,12.3352254 14.6080044,12.443736 14.4271533,12.7692679 Z" id="Path"></path>
        </g>
    </g>
</svg>